<svg viewBox="0 0 96 96" style="fill: currentColor;" xmlns="http://www.w3.org/2000/svg" xmlns:xlink="http://www.w3.org/1999/xlink" xml:space="preserve" overflow="hidden"><g transform="translate(-268 -466)"><path d="M338 540 328 540 328 502 338 502 338 540ZM320 538C320 539.1 319.1 540 318 540 316.9 540 316 539.1 316 538L316 504C316 502.9 316.9 502 318 502 319.1 502 320 502.9 320 504L320 538ZM310 538C310 539.1 309.1 540 308 540 306.9 540 306 539.1 306 538L306 504C306 502.9 306.9 502 308 502 309.1 502 310 502.9 310 504L310 538ZM300 538C300 539.1 299.1 540 298 540 296.9 540 296 539.1 296 538L296 504C296 502.9 296.9 502 298 502 299.1 502 300 502.9 300 504L300 538ZM340 496 328 496 328 492 288 492 288 550C288 552.2 289.8 554 292 554L324 554C326.2 554 328 552.2 328 550L328 546 340 546C342.2 546 344 544.2 344 542L344 500C344 497.8 342.2 496 340 496Z"/><path d="M321 481C319.2 481 317.6 481.7 316.4 482.8 314.9 481.7 313 481 311 481 311 481 311 481 310.9 481 310.4 477.1 307 474 303 474 299 474 295.6 477.1 295.1 481 295.1 481 295.1 481 295 481 291.1 481 288 484.1 288 488L328 488C328 484.1 324.9 481 321 481Z"/></g></svg>