<svg viewBox="0 0 96 96" style="fill: currentColor;" xmlns="http://www.w3.org/2000/svg" xmlns:xlink="http://www.w3.org/1999/xlink" xml:space="preserve" overflow="hidden"><g transform="translate(-592 -312)"><path d="M635 322 607 322C604.791 322 603 323.791 603 326L603 354C603 356.209 604.791 358 607 358L635 358C637.209 358 639 356.209 639 354L639 326C639 323.791 637.209 322 635 322ZM614 353C612.343 353 611 351.657 611 350 611 348.343 612.343 347 614 347 615.657 347 617 348.343 617 350 617 351.657 615.657 353 614 353ZM614 343C612.343 343 611 341.657 611 340 611 338.343 612.343 337 614 337 615.657 337 617 338.343 617 340 617 341.657 615.657 343 614 343ZM614 333C612.343 333 611 331.657 611 330 611 328.343 612.343 327 614 327 615.657 327 617 328.343 617 330 617 331.657 615.657 333 614 333ZM628 353C626.343 353 625 351.657 625 350 625 348.343 626.343 347 628 347 629.657 347 631 348.343 631 350 631 351.657 629.657 353 628 353ZM628 343C626.343 343 625 341.657 625 340 625 338.343 626.343 337 628 337 629.657 337 631 338.343 631 340 631 341.657 629.657 343 628 343ZM628 333C626.343 333 625 331.657 625 330 625 328.343 626.343 327 628 327 629.657 327 631 328.343 631 330 631 331.657 629.657 333 628 333Z"/><path d="M675.63 371.17 655.83 351.37C654.269 349.807 651.736 349.806 650.173 351.367 650.172 351.368 650.171 351.369 650.17 351.37L630.37 371.17C628.807 372.731 628.806 375.264 630.367 376.827 630.368 376.828 630.369 376.829 630.37 376.83L650.17 396.63C651.731 398.193 654.264 398.194 655.827 396.633 655.828 396.632 655.829 396.631 655.83 396.63L675.63 376.83C677.193 375.269 677.194 372.736 675.633 371.173 675.632 371.172 675.631 371.171 675.63 371.17ZM653 359.86C654.171 358.688 656.07 358.686 657.243 359.857 658.415 361.028 658.416 362.928 657.245 364.1 656.074 365.272 654.175 365.273 653.003 364.103 653.002 364.102 653.001 364.101 653 364.1 651.83 362.929 651.83 361.031 653 359.86ZM643.1 378.24C641.929 379.412 640.03 379.414 638.857 378.243 637.685 377.072 637.684 375.172 638.855 374 640.026 372.828 641.925 372.827 643.097 373.997 643.098 373.998 643.099 373.999 643.1 374 644.27 375.171 644.27 377.069 643.1 378.24ZM645.93 366.93C647.101 365.758 649 365.757 650.173 366.927 651.345 368.098 651.346 369.998 650.175 371.17 649.004 372.342 647.105 372.344 645.933 371.173 645.932 371.172 645.931 371.171 645.93 371.17 644.76 369.999 644.76 368.101 645.93 366.93ZM653 388.14C651.829 389.312 649.93 389.314 648.757 388.143 647.585 386.972 647.584 385.072 648.755 383.9 649.926 382.728 651.825 382.727 652.997 383.897 652.998 383.898 652.999 383.899 653 383.9 654.17 385.071 654.17 386.969 653 388.14ZM660.07 381.07C658.899 382.242 657 382.243 655.827 381.073 654.655 379.902 654.654 378.002 655.825 376.83 656.996 375.658 658.895 375.656 660.067 376.827 660.068 376.828 660.069 376.829 660.07 376.83 661.24 378.001 661.24 379.899 660.07 381.07ZM667.14 374C665.969 375.172 664.07 375.173 662.897 374.003 661.725 372.832 661.724 370.932 662.895 369.76 664.066 368.588 665.965 368.586 667.137 369.757 667.138 369.758 667.139 369.759 667.14 369.76 668.31 370.931 668.31 372.829 667.14 374Z"/></g></svg>