<svg viewBox="0 0 96 96" style="fill: currentColor;" xmlns="http://www.w3.org/2000/svg" xmlns:xlink="http://www.w3.org/1999/xlink" xml:space="preserve" overflow="hidden"><g transform="translate(-369 -6)"><path d="M439 35 421.638 35 423.793 12.37C423.897 11.2711 423.092 10.2954 421.993 10.19L418.011 9.81C416.912 9.70502 415.935 10.5108 415.83 11.61L413.6 35 395 35 394.4 35.061C392.78 35.4091 391.749 37.0045 392.097 38.6244 392.386 39.9664 393.548 40.9415 394.92 40.992L399.92 98 434.081 98 439.081 40.992C440.737 40.9311 442.03 39.5394 441.969 37.8837 441.918 36.5119 440.943 35.3494 439.601 35.061ZM400.941 41 413.029 41 411.886 53 401.994 53ZM408 92C406.343 92 405 90.6569 405 89 405 87.3431 406.343 86 408 86 409.657 86 411 87.3431 411 89 411 90.6569 409.657 92 408 92ZM409.5 81C409.5 79.3431 410.843 78 412.5 78 414.157 78 415.5 79.3431 415.5 81 415.5 82.6569 414.157 84 412.5 84 410.843 84 409.5 82.6569 409.5 81ZM417 92C415.343 92 414 90.6569 414 89 414 87.3431 415.343 86 417 86 418.657 86 420 87.3431 420 89 420 90.6569 418.657 92 417 92ZM418.5 81C418.5 79.3431 419.843 78 421.5 78 423.157 78 424.5 79.3431 424.5 81 424.5 82.6569 423.157 84 421.5 84 419.843 84 418.5 82.6569 418.5 81ZM426 92C424.343 92 423 90.6569 423 89 423 87.3431 424.343 86 426 86 427.657 86 429 87.3431 429 89 429 90.6569 427.657 92 426 92ZM432.006 53 419.923 53 421.066 41 433.059 41Z"/></g></svg>