<svg xmlns="http://www.w3.org/2000/svg" viewBox="0 0 46 59">
  <g id="beer" transform="translate(-289.422 -145.881)" style="fill: currentColor;" stroke-width="1.5">
    <path id="Pfad_1" data-name="Pfad 1" d="M334.422,145.881h-44a1,1,0,0,0,0,2h1.75l5,57h30.5l5-57h1.75a1,1,0,0,0,0-2Zm-22.55,0h0Zm18.8,2-1.14,13H295.322l-1.14-13Zm-4.833,55H299l-3.51-40h33.86Zm3.68-42,1.14-13Z"/>
    <path id="Pfad_2" data-name="Pfad 2" d="M311.122,188.527a3,3,0,1,0-3,3A3,3,0,0,0,311.122,188.527Zm-3,1a1,1,0,1,1,1-1A1,1,0,0,1,308.122,189.527Z"/>
    <path id="Pfad_3" data-name="Pfad 3" d="M320.122,188.527a3,3,0,1,0-3,3A3,3,0,0,0,320.122,188.527Zm-3,1a1,1,0,1,1,1-1A1,1,0,0,1,317.122,189.527Z"/>
    <path id="Pfad_4" data-name="Pfad 4" d="M303.622,193.527a3,3,0,1,0,3,3A3,3,0,0,0,303.622,193.527Zm0,4a1,1,0,1,1,1-1A1,1,0,0,1,303.622,197.527Z"/>
    <path id="Pfad_5" data-name="Pfad 5" d="M312.622,193.527a3,3,0,1,0,3,3A3,3,0,0,0,312.622,193.527Zm0,4a1,1,0,1,1,1-1A1,1,0,0,1,312.622,197.527Z"/>
    <path id="Pfad_6" data-name="Pfad 6" d="M321.622,193.527a3,3,0,1,0,3,3A3,3,0,0,0,321.622,193.527Zm0,4a1,1,0,1,1,1-1A1,1,0,0,1,321.622,197.527Z"/>
  </g>
</svg>
