<svg viewbox="0 0 96 96" xmlns="http://www.w3.org/2000/svg">
    <g transform="translate(-1143 -330)">
        <path d="M1186 377.013 1158 377.013C1155.24 377.009 1153 374.773 1153 372.013L1153 344C1153 341.24 1155.24 339.004 1158 339L1186 339C1188.76 339.004 1191 341.24 1191 344L1191 372.012C1191 374.772 1188.76 377.009 1186 377.013ZM1158 341C1156.34 341 1155 342.343 1155 344L1155 372.012C1155 373.669 1156.34 375.012 1158 375.012L1186 375.012C1187.66 375.012 1189 373.669 1189 372.012L1189 344C1189 342.343 1187.66 341 1186 341Z"/>
        <path d="M1205 417.827 1205 417.827C1203.67 417.831 1202.4 417.302 1201.46 416.36L1181.67 396.552C1179.71 394.598 1179.71 391.433 1181.67 389.479L1201.46 369.679C1202.4 368.736 1203.67 368.206 1205 368.208L1205 368.208C1206.33 368.204 1207.6 368.732 1208.54 369.674L1228.33 389.482C1230.29 391.437 1230.29 394.601 1228.33 396.556L1208.54 416.361C1207.6 417.303 1206.33 417.831 1205 417.827ZM1183.05 395.107 1183.08 395.141 1202.88 414.947C1203.44 415.512 1204.2 415.829 1205 415.827L1205 415.827C1205.8 415.829 1206.56 415.513 1207.12 414.949L1226.92 395.141C1228.09 393.97 1228.09 392.071 1226.92 390.898 1226.92 390.898 1226.92 390.897 1226.92 390.896L1207.12 371.088C1206.56 370.523 1205.8 370.206 1205 370.208L1205 370.208C1204.2 370.206 1203.44 370.521 1202.88 371.085L1183.08 390.894C1181.92 392.053 1181.9 393.93 1183.05 395.107Z"/><path d="M1179 370.511C1177.62 370.511 1176.5 369.392 1176.5 368.011 1176.5 366.63 1177.62 365.511 1179 365.511 1180.38 365.511 1181.5 366.63 1181.5 368.011 1181.5 369.392 1180.38 370.511 1179 370.511Z"/>
        <path d="M1165 370.511C1163.62 370.511 1162.5 369.392 1162.5 368.011 1162.5 366.63 1163.62 365.511 1165 365.511 1166.38 365.511 1167.5 366.63 1167.5 368.011 1167.5 369.392 1166.38 370.511 1165 370.511Z"/>
        <path d="M1181.5 358.008C1181.5 359.389 1180.38 360.508 1179 360.508 1177.62 360.508 1176.5 359.389 1176.5 358.008 1176.5 356.627 1177.62 355.508 1179 355.508 1180.38 355.508 1181.5 356.627 1181.5 358.008Z"/>
        <path d="M1167.5 358.008C1167.5 359.389 1166.38 360.508 1165 360.508 1163.62 360.508 1162.5 359.389 1162.5 358.008 1162.5 356.627 1163.62 355.508 1165 355.508 1166.38 355.508 1167.5 356.627 1167.5 358.008Z"/>
        <path d="M1179 350.506C1177.62 350.506 1176.5 349.387 1176.5 348.006 1176.5 346.625 1177.62 345.506 1179 345.506 1180.38 345.506 1181.5 346.625 1181.5 348.006 1181.5 349.387 1180.38 350.506 1179 350.506Z"/>
        <path d="M1165 350.506C1163.62 350.506 1162.5 349.387 1162.5 348.006 1162.5 346.625 1163.62 345.506 1165 345.506 1166.38 345.506 1167.5 346.625 1167.5 348.006 1167.5 349.387 1166.38 350.506 1165 350.506Z"/>
        <path d="M1202.88 407.542C1201.5 407.542 1200.38 406.423 1200.38 405.043 1200.38 403.662 1201.5 402.542 1202.88 402.542 1204.26 402.542 1205.38 403.661 1205.38 405.042 1205.38 405.704 1205.12 406.339 1204.65 406.808 1204.18 407.279 1203.54 407.544 1202.88 407.542Z"/>
        <path d="M1209.95 400.469C1208.57 400.469 1207.45 399.349 1207.45 397.969 1207.45 396.588 1208.57 395.469 1209.95 395.469 1211.33 395.469 1212.45 396.589 1212.45 397.969 1212.45 398.632 1212.19 399.267 1211.72 399.736 1211.25 400.207 1210.61 400.471 1209.95 400.469Z"/>
        <path d="M1192.98 397.639C1191.6 397.638 1190.48 396.517 1190.48 395.137 1190.48 393.756 1191.6 392.638 1192.98 392.639 1193.64 392.64 1194.28 392.902 1194.75 393.368 1195.72 394.342 1195.73 395.925 1194.75 396.904 1194.28 397.375 1193.64 397.64 1192.98 397.639Z"/>
        <path d="M1217.02 393.4C1215.64 393.399 1214.52 392.278 1214.52 390.897 1214.52 389.517 1215.64 388.399 1217.02 388.4 1217.69 388.401 1218.32 388.663 1218.79 389.129 1219.77 390.104 1219.77 391.686 1218.79 392.664 1218.32 393.136 1217.69 393.401 1217.02 393.4Z"/>
        <path d="M1200.05 390.567C1199.39 390.569 1198.76 390.305 1198.29 389.835 1197.31 388.859 1197.31 387.276 1198.29 386.299 1199.26 385.323 1200.85 385.323 1201.82 386.299 1202.8 387.275 1202.8 388.858 1201.82 389.835 1201.36 390.304 1200.72 390.568 1200.05 390.567Z"/>
        <path d="M1207.12 383.5C1205.74 383.5 1204.62 382.381 1204.62 381 1204.62 379.62 1205.74 378.5 1207.12 378.5 1208.5 378.5 1209.62 379.619 1209.62 381 1209.62 381.662 1209.36 382.297 1208.89 382.766 1208.43 383.238 1207.79 383.502 1207.12 383.5Z"/>
    </g>
</svg>