<svg viewBox="0 0 96 96" xmlns="http://www.w3.org/2000/svg" xmlns:xlink="http://www.w3.org/1999/xlink" xml:space="preserve" overflow="hidden" style="fill: currentColor;"><g transform="translate(-390 -466)"><path d="M462 496 450 496 450 488.3C450.046 484.121 446.694 480.695 442.515 480.65 442.46 480.649 442.405 480.649 442.35 480.65 440.755 480.65 439.202 481.164 437.921 482.115 436.612 481.307 435.132 480.818 433.6 480.686 432.568 476.077 427.996 473.177 423.387 474.208 420.155 474.932 417.632 477.455 416.909 480.686 412.969 481.026 409.957 484.345 410 488.3L410 550C410.007 552.206 411.794 553.993 414 554L446 554C448.206 553.993 449.993 552.206 450 550L450 546 462 546C464.206 545.993 465.993 544.206 466 542L466 500C465.993 497.794 464.206 496.007 462 496ZM448 550C448 551.105 447.105 552 446 552L414 552C412.895 552 412 551.105 412 550L412 492 448 492ZM448 490 412 490 412 488.3C411.978 485.201 414.473 482.67 417.572 482.649 417.63 482.648 417.687 482.649 417.745 482.65L418.625 482.65 418.737 481.777C419.17 478.18 422.437 475.615 426.034 476.048 429.036 476.409 431.402 478.775 431.763 481.777L431.97 482.65 432.85 482.65C434.486 482.664 436.075 483.195 437.39 484.167L438.052 484.651 438.652 484.097C439.659 483.167 440.979 482.651 442.35 482.65 445.437 482.617 447.967 485.092 448 488.179 448 488.22 448 488.26 448 488.3ZM450 503 459 503 459 539 450 539ZM464 542C464 543.105 463.105 544 462 544L450 544 450 541 461 541 461 501 450 501 450 498 462 498C463.105 498 464 498.895 464 500Z"/><path d="M420 540C420.552 540 421 539.552 421 539L421 503C421 502.448 420.552 502 420 502 419.448 502 419 502.448 419 503L419 539C419 539.552 419.448 540 420 540Z"/><path d="M430 540C430.552 540 431 539.552 431 539L431 503C431 502.448 430.552 502 430 502 429.448 502 429 502.448 429 503L429 539C429 539.552 429.448 540 430 540Z"/><path d="M440 540C440.552 540 441 539.552 441 539L441 503C441 502.448 440.552 502 440 502 439.448 502 439 502.448 439 503L439 539C439 539.552 439.448 540 440 540Z"/></g></svg>